<svg width="1180" height="1180" viewBox="0 0 1180 1180" xmlns="http://www.w3.org/2000/svg" font-family="-apple-system, BlinkMacSystemFont, 'SF Pro Text', 'Segoe UI', Helvetica, Arial, sans-serif">
  <defs>
    <filter id="sh" x="-20%" y="-20%" width="140%" height="140%">
      <feDropShadow dx="0" dy="3" stdDeviation="7" flood-color="#0b1733" flood-opacity="0.13"/>
    </filter>
  </defs>

  <rect x="0" y="0" width="1180" height="1180" fill="#f4f6fb"/>

  <text x="50" y="52" fill="#0f1830" font-size="27" font-weight="700">Datenbankschema</text>
  <text x="50" y="76" fill="#6e7891" font-size="14">Lebenslauf Boost AI &#183; SQLite &#183; 4 Tabellen &#183; generiert aus app/models.py</text>

  <text x="52" y="150" fill="#0f1830" font-size="13" font-weight="700">Legende</text>
  <circle cx="60" cy="172" r="5" fill="#e0a200"/><text x="74" y="176" fill="#5b6473" font-size="12.5">Primärschlüssel (PK)</text>
  <circle cx="60" cy="196" r="5" fill="#2563eb"/><text x="74" y="200" fill="#5b6473" font-size="12.5">Fremdschlüssel (FK)</text>
  <g stroke="#9aa3b8" stroke-width="1.5" fill="none"><path d="M54,222 H86"/><path d="M86,222 l-9,-5 M86,222 l-9,5 M86,222 l-9,0"/></g>
  <text x="98" y="226" fill="#5b6473" font-size="12.5">1 : n  — eine Sitzung, mehrere Einträge</text>
  <g stroke="#9aa3b8" stroke-width="1.5" fill="none"><path d="M54,248 H86"/><path d="M80,242 V254"/></g>
  <text x="98" y="252" fill="#5b6473" font-size="12.5">1 : 1  — genau ein Eintrag</text>
  <text x="52" y="284" fill="#8a93a8" font-size="11.5">ON DELETE CASCADE — Kind-Datensätze werden mit der Sitzung gelöscht.</text>

  <g stroke="#9aa3b8" stroke-width="1.6" fill="none">
    <path d="M360,477 C560,477 560,199 750,199"/>
    <path d="M360,477 C560,477 545,451 750,451"/>
    <path d="M360,477 C560,477 560,807 750,807"/>
    <path d="M360,470 V484"/>
    <path d="M752,192 V206"/>
    <path d="M750,451 l10,-7 M750,451 l10,7 M750,451 l10,0"/>
    <path d="M750,807 l10,-7 M750,807 l10,7 M750,807 l10,0"/>
  </g>
  <g font-size="11.5" font-weight="600" text-anchor="middle">
    <rect x="528" y="316" width="46" height="20" rx="10" fill="#ffffff" stroke="#dbe0ea"/><text x="551" y="330" fill="#0f766e">1 : 1</text>
    <rect x="520" y="441" width="46" height="20" rx="10" fill="#ffffff" stroke="#dbe0ea"/><text x="543" y="455" fill="#6d28d9">1 : n</text>
    <rect x="528" y="640" width="46" height="20" rx="10" fill="#ffffff" stroke="#dbe0ea"/><text x="551" y="654" fill="#b45309">1 : n</text>
  </g>

  <g filter="url(#sh)">
    <rect x="60" y="424" width="300" height="170" rx="10" fill="#ffffff" stroke="#e4e8f0"/>
    <path d="M60,434 Q60,424 70,424 H350 Q360,424 360,434 V464 H60 Z" fill="#0071e3"/>
    <text x="80" y="452" fill="#ffffff" font-size="15.5" font-weight="700">sessions</text>
    <text x="350" y="451" fill="#cfe2ff" font-size="11.5" text-anchor="end">Nutzersitzung &#183; Hub</text>
    <line x1="60" y1="490" x2="360" y2="490" stroke="#eef1f6"/><line x1="60" y1="516" x2="360" y2="516" stroke="#eef1f6"/><line x1="60" y1="542" x2="360" y2="542" stroke="#eef1f6"/><line x1="60" y1="568" x2="360" y2="568" stroke="#eef1f6"/>
    <text x="74" y="481" fill="#c98a00" font-size="9" font-weight="700">PK</text><text x="102" y="481" fill="#1f2430" font-size="12.5" font-weight="600">id</text><text x="346" y="481" fill="#97a0b0" font-size="11" text-anchor="end">TEXT (UUID)</text>
    <text x="102" y="507" fill="#1f2430" font-size="12.5">language</text><text x="346" y="507" fill="#97a0b0" font-size="11" text-anchor="end">TEXT &#183; 'de'</text>
    <text x="102" y="533" fill="#1f2430" font-size="12.5">job_description</text><text x="346" y="533" fill="#97a0b0" font-size="11" text-anchor="end">TEXT</text>
    <text x="102" y="559" fill="#1f2430" font-size="12.5">wishes</text><text x="346" y="559" fill="#97a0b0" font-size="11" text-anchor="end">TEXT</text>
    <text x="102" y="585" fill="#1f2430" font-size="12.5">created_at</text><text x="346" y="585" fill="#97a0b0" font-size="11" text-anchor="end">DATETIME</text>
  </g>

  <g filter="url(#sh)">
    <rect x="760" y="120" width="360" height="222" rx="10" fill="#ffffff" stroke="#e4e8f0"/>
    <path d="M760,130 Q760,120 770,120 H1110 Q1120,120 1120,130 V160 H760 Z" fill="#0f766e"/>
    <text x="780" y="148" fill="#ffffff" font-size="15.5" font-weight="700">cv_documents</text>
    <text x="1110" y="147" fill="#bdeae3" font-size="11.5" text-anchor="end">Lebenslauf + RAG-Index</text>
    <line x1="760" y1="186" x2="1120" y2="186" stroke="#eef1f6"/><line x1="760" y1="212" x2="1120" y2="212" stroke="#eef1f6"/><line x1="760" y1="238" x2="1120" y2="238" stroke="#eef1f6"/><line x1="760" y1="264" x2="1120" y2="264" stroke="#eef1f6"/><line x1="760" y1="290" x2="1120" y2="290" stroke="#eef1f6"/><line x1="760" y1="316" x2="1120" y2="316" stroke="#eef1f6"/>
    <text x="774" y="177" fill="#c98a00" font-size="9" font-weight="700">PK</text><text x="802" y="177" fill="#1f2430" font-size="12.5" font-weight="600">id</text><text x="1106" y="177" fill="#97a0b0" font-size="11" text-anchor="end">TEXT (UUID)</text>
    <text x="774" y="203" fill="#2563eb" font-size="9" font-weight="700">FK</text><text x="802" y="203" fill="#1f2430" font-size="12.5">session_id</text><text x="1106" y="203" fill="#97a0b0" font-size="11" text-anchor="end">TEXT &#8594; sessions.id</text>
    <text x="802" y="229" fill="#1f2430" font-size="12.5">filename</text><text x="1106" y="229" fill="#97a0b0" font-size="11" text-anchor="end">TEXT</text>
    <text x="802" y="255" fill="#1f2430" font-size="12.5">content</text><text x="1106" y="255" fill="#97a0b0" font-size="11" text-anchor="end">TEXT &#183; Volltext</text>
    <text x="802" y="281" fill="#1f2430" font-size="12.5">index_json</text><text x="1106" y="281" fill="#97a0b0" font-size="11" text-anchor="end">TEXT &#183; JSON</text>
    <text x="802" y="307" fill="#1f2430" font-size="12.5">photo_data_url</text><text x="1106" y="307" fill="#97a0b0" font-size="11" text-anchor="end">TEXT &#183; base64</text>
    <text x="802" y="333" fill="#1f2430" font-size="12.5">created_at</text><text x="1106" y="333" fill="#97a0b0" font-size="11" text-anchor="end">DATETIME</text>
  </g>

  <g filter="url(#sh)">
    <rect x="760" y="372" width="360" height="326" rx="10" fill="#ffffff" stroke="#e4e8f0"/>
    <path d="M760,382 Q760,372 770,372 H1110 Q1120,372 1120,382 V412 H760 Z" fill="#6d28d9"/>
    <text x="780" y="400" fill="#ffffff" font-size="15.5" font-weight="700">generations</text>
    <text x="1110" y="399" fill="#ddd0fb" font-size="11.5" text-anchor="end">KI-Entwurf + ATS-Bewertung</text>
    <line x1="760" y1="438" x2="1120" y2="438" stroke="#eef1f6"/><line x1="760" y1="464" x2="1120" y2="464" stroke="#eef1f6"/><line x1="760" y1="490" x2="1120" y2="490" stroke="#eef1f6"/><line x1="760" y1="516" x2="1120" y2="516" stroke="#eef1f6"/><line x1="760" y1="542" x2="1120" y2="542" stroke="#eef1f6"/><line x1="760" y1="568" x2="1120" y2="568" stroke="#eef1f6"/><line x1="760" y1="594" x2="1120" y2="594" stroke="#eef1f6"/><line x1="760" y1="620" x2="1120" y2="620" stroke="#eef1f6"/><line x1="760" y1="646" x2="1120" y2="646" stroke="#eef1f6"/><line x1="760" y1="672" x2="1120" y2="672" stroke="#eef1f6"/>
    <text x="774" y="429" fill="#c98a00" font-size="9" font-weight="700">PK</text><text x="802" y="429" fill="#1f2430" font-size="12.5" font-weight="600">id</text><text x="1106" y="429" fill="#97a0b0" font-size="11" text-anchor="end">TEXT (UUID)</text>
    <text x="774" y="455" fill="#2563eb" font-size="9" font-weight="700">FK</text><text x="802" y="455" fill="#1f2430" font-size="12.5">session_id</text><text x="1106" y="455" fill="#97a0b0" font-size="11" text-anchor="end">TEXT &#8594; sessions.id</text>
    <text x="802" y="481" fill="#1f2430" font-size="12.5">provider</text><text x="1106" y="481" fill="#97a0b0" font-size="11" text-anchor="end">TEXT &#183; claude|openai</text>
    <text x="802" y="507" fill="#1f2430" font-size="12.5">model</text><text x="1106" y="507" fill="#97a0b0" font-size="11" text-anchor="end">TEXT</text>
    <text x="802" y="533" fill="#1f2430" font-size="12.5">technique</text><text x="1106" y="533" fill="#97a0b0" font-size="11" text-anchor="end">TEXT</text>
    <text x="802" y="559" fill="#1f2430" font-size="12.5">content</text><text x="1106" y="559" fill="#97a0b0" font-size="11" text-anchor="end">TEXT &#183; Markdown</text>
    <text x="802" y="585" fill="#1f2430" font-size="12.5">ats_score</text><text x="1106" y="585" fill="#97a0b0" font-size="11" text-anchor="end">REAL &#183; 0.0</text>
    <text x="802" y="611" fill="#1f2430" font-size="12.5">matched_keywords</text><text x="1106" y="611" fill="#97a0b0" font-size="11" text-anchor="end">TEXT &#183; JSON</text>
    <text x="802" y="637" fill="#1f2430" font-size="12.5">missing_keywords</text><text x="1106" y="637" fill="#97a0b0" font-size="11" text-anchor="end">TEXT &#183; JSON</text>
    <text x="802" y="663" fill="#1f2430" font-size="12.5">is_selected</text><text x="1106" y="663" fill="#97a0b0" font-size="11" text-anchor="end">BOOLEAN &#183; 0</text>
    <text x="802" y="689" fill="#1f2430" font-size="12.5">created_at</text><text x="1106" y="689" fill="#97a0b0" font-size="11" text-anchor="end">DATETIME</text>
  </g>

  <g filter="url(#sh)">
    <rect x="760" y="728" width="360" height="170" rx="10" fill="#ffffff" stroke="#e4e8f0"/>
    <path d="M760,738 Q760,728 770,728 H1110 Q1120,728 1120,738 V768 H760 Z" fill="#b45309"/>
    <text x="780" y="756" fill="#ffffff" font-size="15.5" font-weight="700">messages</text>
    <text x="1110" y="755" fill="#fbe2c4" font-size="11.5" text-anchor="end">Gesprächsverlauf</text>
    <line x1="760" y1="794" x2="1120" y2="794" stroke="#eef1f6"/><line x1="760" y1="820" x2="1120" y2="820" stroke="#eef1f6"/><line x1="760" y1="846" x2="1120" y2="846" stroke="#eef1f6"/><line x1="760" y1="872" x2="1120" y2="872" stroke="#eef1f6"/>
    <text x="774" y="785" fill="#c98a00" font-size="9" font-weight="700">PK</text><text x="802" y="785" fill="#1f2430" font-size="12.5" font-weight="600">id</text><text x="1106" y="785" fill="#97a0b0" font-size="11" text-anchor="end">TEXT (UUID)</text>
    <text x="774" y="811" fill="#2563eb" font-size="9" font-weight="700">FK</text><text x="802" y="811" fill="#1f2430" font-size="12.5">session_id</text><text x="1106" y="811" fill="#97a0b0" font-size="11" text-anchor="end">TEXT &#8594; sessions.id</text>
    <text x="802" y="837" fill="#1f2430" font-size="12.5">role</text><text x="1106" y="837" fill="#97a0b0" font-size="11" text-anchor="end">TEXT &#183; user|assistant</text>
    <text x="802" y="863" fill="#1f2430" font-size="12.5">content</text><text x="1106" y="863" fill="#97a0b0" font-size="11" text-anchor="end">TEXT</text>
    <text x="802" y="889" fill="#1f2430" font-size="12.5">created_at</text><text x="1106" y="889" fill="#97a0b0" font-size="11" text-anchor="end">DATETIME</text>
  </g>
</svg>
